<?xml version="1.0" standalone="no"?><!DOCTYPE svg PUBLIC "-//W3C//DTD SVG 1.1//EN" "http://www.w3.org/Graphics/SVG/1.1/DTD/svg11.dtd"><svg t="1613983726856" class="icon" viewBox="0 0 1024 1024" version="1.1" xmlns="http://www.w3.org/2000/svg" p-id="5506" xmlns:xlink="http://www.w3.org/1999/xlink" width="200" height="200"><defs><style type="text/css"></style></defs><path d="M917.357714 21.357714H694.491429a213.211429 213.211429 0 0 0-181.394286 100.937143A213.211429 213.211429 0 0 0 331.776 21.357714H106.642286C47.762286 21.357714 0 69.12 0 128v704c0 58.953143 47.762286 106.642286 106.642286 106.642286h282.770285c27.062857 38.765714 71.826286 64 122.587429 64s95.597714-25.307429 122.587429-64h282.770285c58.88 0 106.642286-47.689143 106.642286-106.642286V128c0-58.88-47.762286-106.642286-106.642286-106.642286z m42.642286 810.642286a42.642286 42.642286 0 0 1-42.642286 42.642286H594.651429a85.357714 85.357714 0 0 1-165.302858 0H106.642286a42.642286 42.642286 0 0 1-42.642286-42.642286V128c0-23.552 19.090286-42.642286 42.642286-42.642286h225.133714c82.505143 0 149.357714 66.852571 149.357714 149.284572v384h0.073143a31.963429 31.963429 0 0 0 63.780572 0h0.146285v-384c0-82.432 66.852571-149.284571 149.357715-149.284572h222.866285c23.552 0 42.642286 19.017143 42.642286 42.642286v704z" p-id="5507" fill="#333333"></path></svg>