<?xml version="1.0" standalone="no"?><!DOCTYPE svg PUBLIC "-//W3C//DTD SVG 1.1//EN" "http://www.w3.org/Graphics/SVG/1.1/DTD/svg11.dtd"><svg t="1614132908688" class="icon" viewBox="0 0 1024 1024" version="1.1" xmlns="http://www.w3.org/2000/svg" p-id="2472" xmlns:xlink="http://www.w3.org/1999/xlink" width="200" height="200"><defs><style type="text/css"></style></defs><path d="M924.31327975 877.71348306l-177.24797232-177.57248318a371.11091474 371.11091474 0 0 0 85.70338633-237.89910114C832.76869376 256.69655698 666.61900107 90.125 461.52797418 90.125 256.37204611 90.125 90.125 256.69655698 90.125 462.24189875c0 205.51289118 166.24704611 372.21425217 371.30562158 372.21425299 91.25252655 0 174.78168777-33.0027811 239.42430285-87.74780658l177.0857169 177.50758117a32.58091598 32.58091598 0 0 0 46.30773641 0 32.87297625 32.87297625 0 0 0 0-46.46999186h0.06490201z m-462.85020758-108.93838183a304.84574451 304.84574451 0 0 1-216.22175794-89.75977542 305.55966907 305.55966907 0 0 1-89.53261715-216.77342707 305.13780396 305.13780396 0 0 1 89.56506858-216.74097564 304.84574451 304.84574451 0 0 1 432.50841787 0 305.59211965 305.59211965 0 0 1 89.50016657 216.74097564 305.13780396 305.13780396 0 0 1-89.56506859 216.77342707 304.84574451 304.84574451 0 0 1-216.25420934 89.75977542z" fill="#ffffff" p-id="2473"></path></svg>