<?xml version="1.0" standalone="no"?><!DOCTYPE svg PUBLIC "-//W3C//DTD SVG 1.1//EN" "http://www.w3.org/Graphics/SVG/1.1/DTD/svg11.dtd"><svg t="1659058801346" class="icon" viewBox="0 0 1024 1024" version="1.1" xmlns="http://www.w3.org/2000/svg" p-id="2428" xmlns:xlink="http://www.w3.org/1999/xlink" width="16" height="16"><defs><style type="text/css">@font-face { font-family: feedback-iconfont; src: url("//at.alicdn.com/t/font_1031158_u69w8yhxdu.woff2?t=1630033759944") format("woff2"), url("//at.alicdn.com/t/font_1031158_u69w8yhxdu.woff?t=1630033759944") format("woff"), url("//at.alicdn.com/t/font_1031158_u69w8yhxdu.ttf?t=1630033759944") format("truetype"); }
</style></defs><path d="M128 256l64 0L192 192 128 192 128 256zM896 64 128 64C57.312 64 0 121.312 0 192l0 768 1024 0L1024 192C1024 121.312 966.688 64 896 64zM960 896 64 896 64 384l896 0L960 896zM960 320 64 320 64 192c0-35.328 28.672-64 64-64l768 0c35.328 0 64 28.672 64 64L960 320zM864 192 416 192c-17.664 0-32 14.336-32 32s14.336 32 32 32l448 0c17.696 0 32-14.336 32-32S881.696 192 864 192zM256 256l64 0L320 192 256 192 256 256z" p-id="2429"></path></svg>